<mxfile host="app.diagrams.net" modified="2024-01-19T11:21:44.690Z" agent="Mozilla/5.0 (Windows NT 10.0; Win64; x64) AppleWebKit/537.36 (KHTML, like Gecko) Chrome/120.0.0.0 Safari/537.36" etag="tbcaSvp-Kfabg5OySVIl" version="22.1.21" type="device">
  <diagram name="Page-1" id="9kCDMBCtZoSfwNyQTBR-">
    <mxGraphModel dx="7434" dy="4896" grid="1" gridSize="10" guides="1" tooltips="1" connect="1" arrows="1" fold="1" page="1" pageScale="1" pageWidth="850" pageHeight="1100" math="0" shadow="0">
      <root>
        <mxCell id="0" />
        <mxCell id="1" parent="0" />
        <mxCell id="2045cuq98jGpGBP9lHV3-7" value="`" style="rounded=0;whiteSpace=wrap;html=1;" parent="1" vertex="1">
          <mxGeometry x="-2000" y="-960" width="830" height="500" as="geometry" />
        </mxCell>
        <mxCell id="2045cuq98jGpGBP9lHV3-28" value="" style="rounded=0;whiteSpace=wrap;html=1;" parent="1" vertex="1">
          <mxGeometry x="-770" y="-980" width="360" height="500" as="geometry" />
        </mxCell>
        <mxCell id="h-zxiZMkEH1Zj-MicnAZ-12" value="&lt;span style=&quot;font-size: 50px;&quot;&gt;&lt;b&gt;&lt;u&gt;Users Products&lt;/u&gt;&lt;/b&gt;&lt;/span&gt;" style="text;html=1;strokeColor=none;fillColor=none;align=center;verticalAlign=middle;whiteSpace=wrap;rounded=0;fontSize=12;fontFamily=Helvetica;fontColor=default;" parent="1" vertex="1">
          <mxGeometry x="-1631" y="-1160" width="712.5" height="30" as="geometry" />
        </mxCell>
        <mxCell id="4pbtzh1Q4UVARywyvd64-3" value="&lt;font style=&quot;font-size: 27px;&quot;&gt;View your Products&amp;nbsp;&lt;/font&gt;" style="text;html=1;strokeColor=none;fillColor=none;align=center;verticalAlign=middle;whiteSpace=wrap;rounded=0;" vertex="1" parent="1">
          <mxGeometry x="-1780" y="-940" width="370" height="30" as="geometry" />
        </mxCell>
        <mxCell id="4pbtzh1Q4UVARywyvd64-4" value="&lt;font style=&quot;font-size: 27px;&quot;&gt;View your Products&amp;nbsp;&lt;/font&gt;" style="text;html=1;strokeColor=none;fillColor=none;align=center;verticalAlign=middle;whiteSpace=wrap;rounded=0;" vertex="1" parent="1">
          <mxGeometry x="-662.5" y="-940" width="145" height="30" as="geometry" />
        </mxCell>
        <mxCell id="4pbtzh1Q4UVARywyvd64-5" value="" style="rounded=1;whiteSpace=wrap;html=1;" vertex="1" parent="1">
          <mxGeometry x="-1755" y="-395" width="600" height="210" as="geometry" />
        </mxCell>
        <mxCell id="4pbtzh1Q4UVARywyvd64-6" value="" style="sketch=0;outlineConnect=0;fontColor=#232F3E;gradientColor=none;fillColor=#030100;strokeColor=default;dashed=0;verticalLabelPosition=bottom;verticalAlign=top;align=center;html=1;fontSize=12;fontStyle=0;aspect=fixed;pointerEvents=1;shape=mxgraph.aws4.container_registry_image;strokeWidth=0;" vertex="1" parent="1">
          <mxGeometry x="-1725" y="-365" width="100" height="100" as="geometry" />
        </mxCell>
        <mxCell id="4pbtzh1Q4UVARywyvd64-7" value="&lt;font style=&quot;font-size: 20px;&quot;&gt;Product Name&lt;/font&gt;" style="text;html=1;strokeColor=none;fillColor=none;align=center;verticalAlign=middle;whiteSpace=wrap;rounded=0;" vertex="1" parent="1">
          <mxGeometry x="-1670" y="-365" width="240" height="40" as="geometry" />
        </mxCell>
        <mxCell id="4pbtzh1Q4UVARywyvd64-8" value="" style="verticalLabelPosition=bottom;verticalAlign=top;html=1;shape=mxgraph.basic.star" vertex="1" parent="1">
          <mxGeometry x="-1615" y="-335" width="30" height="30" as="geometry" />
        </mxCell>
        <mxCell id="4pbtzh1Q4UVARywyvd64-9" value="" style="verticalLabelPosition=bottom;verticalAlign=top;html=1;shape=mxgraph.basic.star" vertex="1" parent="1">
          <mxGeometry x="-1585" y="-335" width="30" height="30" as="geometry" />
        </mxCell>
        <mxCell id="4pbtzh1Q4UVARywyvd64-10" value="" style="verticalLabelPosition=bottom;verticalAlign=top;html=1;shape=mxgraph.basic.star" vertex="1" parent="1">
          <mxGeometry x="-1555" y="-335" width="30" height="30" as="geometry" />
        </mxCell>
        <mxCell id="4pbtzh1Q4UVARywyvd64-11" value="" style="verticalLabelPosition=bottom;verticalAlign=top;html=1;shape=mxgraph.basic.star" vertex="1" parent="1">
          <mxGeometry x="-1525" y="-335" width="30" height="30" as="geometry" />
        </mxCell>
        <mxCell id="4pbtzh1Q4UVARywyvd64-12" value="" style="verticalLabelPosition=bottom;verticalAlign=top;html=1;shape=mxgraph.basic.star" vertex="1" parent="1">
          <mxGeometry x="-1495" y="-335" width="30" height="30" as="geometry" />
        </mxCell>
        <mxCell id="4pbtzh1Q4UVARywyvd64-15" value="&lt;h1&gt;&lt;br&gt;&lt;/h1&gt;&lt;p&gt;Lorem ipsum dolor sit amet, consectetur adipisicing elit, sed do eiusmod tempor incididunt ut labore et dolore magna aliqua.&lt;/p&gt;" style="text;html=1;strokeColor=none;fillColor=none;spacing=5;spacingTop=-20;whiteSpace=wrap;overflow=hidden;rounded=0;" vertex="1" parent="1">
          <mxGeometry x="-1615" y="-305" width="450" height="120" as="geometry" />
        </mxCell>
        <mxCell id="4pbtzh1Q4UVARywyvd64-16" value="Products status" style="text;html=1;strokeColor=none;fillColor=none;align=center;verticalAlign=middle;whiteSpace=wrap;rounded=0;" vertex="1" parent="1">
          <mxGeometry x="-1635" y="-305" width="140" height="30" as="geometry" />
        </mxCell>
        <mxCell id="4pbtzh1Q4UVARywyvd64-17" value="category || £12.34&amp;nbsp;&amp;nbsp;" style="text;html=1;strokeColor=none;fillColor=none;align=center;verticalAlign=middle;whiteSpace=wrap;rounded=0;" vertex="1" parent="1">
          <mxGeometry x="-1650" y="-285" width="185" height="30" as="geometry" />
        </mxCell>
        <mxCell id="4pbtzh1Q4UVARywyvd64-18" value="" style="rounded=1;whiteSpace=wrap;html=1;" vertex="1" parent="1">
          <mxGeometry x="-1885" y="-890" width="600" height="210" as="geometry" />
        </mxCell>
        <mxCell id="4pbtzh1Q4UVARywyvd64-19" value="" style="sketch=0;outlineConnect=0;fontColor=#232F3E;gradientColor=none;fillColor=#030100;strokeColor=default;dashed=0;verticalLabelPosition=bottom;verticalAlign=top;align=center;html=1;fontSize=12;fontStyle=0;aspect=fixed;pointerEvents=1;shape=mxgraph.aws4.container_registry_image;strokeWidth=0;" vertex="1" parent="1">
          <mxGeometry x="-1855" y="-860" width="100" height="100" as="geometry" />
        </mxCell>
        <mxCell id="4pbtzh1Q4UVARywyvd64-20" value="&lt;font style=&quot;font-size: 20px;&quot;&gt;Product Name&lt;/font&gt;" style="text;html=1;strokeColor=none;fillColor=none;align=center;verticalAlign=middle;whiteSpace=wrap;rounded=0;" vertex="1" parent="1">
          <mxGeometry x="-1800" y="-860" width="240" height="40" as="geometry" />
        </mxCell>
        <mxCell id="4pbtzh1Q4UVARywyvd64-21" value="" style="verticalLabelPosition=bottom;verticalAlign=top;html=1;shape=mxgraph.basic.star" vertex="1" parent="1">
          <mxGeometry x="-1745" y="-830" width="30" height="30" as="geometry" />
        </mxCell>
        <mxCell id="4pbtzh1Q4UVARywyvd64-22" value="" style="verticalLabelPosition=bottom;verticalAlign=top;html=1;shape=mxgraph.basic.star" vertex="1" parent="1">
          <mxGeometry x="-1715" y="-830" width="30" height="30" as="geometry" />
        </mxCell>
        <mxCell id="4pbtzh1Q4UVARywyvd64-23" value="" style="verticalLabelPosition=bottom;verticalAlign=top;html=1;shape=mxgraph.basic.star" vertex="1" parent="1">
          <mxGeometry x="-1685" y="-830" width="30" height="30" as="geometry" />
        </mxCell>
        <mxCell id="4pbtzh1Q4UVARywyvd64-24" value="" style="verticalLabelPosition=bottom;verticalAlign=top;html=1;shape=mxgraph.basic.star" vertex="1" parent="1">
          <mxGeometry x="-1655" y="-830" width="30" height="30" as="geometry" />
        </mxCell>
        <mxCell id="4pbtzh1Q4UVARywyvd64-25" value="" style="verticalLabelPosition=bottom;verticalAlign=top;html=1;shape=mxgraph.basic.star" vertex="1" parent="1">
          <mxGeometry x="-1625" y="-830" width="30" height="30" as="geometry" />
        </mxCell>
        <mxCell id="4pbtzh1Q4UVARywyvd64-26" value="&lt;h1&gt;&lt;br&gt;&lt;/h1&gt;&lt;p&gt;Lorem ipsum dolor sit amet, consectetur adipisicing elit, sed do eiusmod tempor incididunt ut labore et dolore magna aliqua.&lt;/p&gt;" style="text;html=1;strokeColor=none;fillColor=none;spacing=5;spacingTop=-20;whiteSpace=wrap;overflow=hidden;rounded=0;" vertex="1" parent="1">
          <mxGeometry x="-1745" y="-800" width="450" height="120" as="geometry" />
        </mxCell>
        <mxCell id="4pbtzh1Q4UVARywyvd64-27" value="Products status" style="text;html=1;strokeColor=none;fillColor=none;align=center;verticalAlign=middle;whiteSpace=wrap;rounded=0;" vertex="1" parent="1">
          <mxGeometry x="-1765" y="-800" width="140" height="30" as="geometry" />
        </mxCell>
        <mxCell id="4pbtzh1Q4UVARywyvd64-28" value="category || £12.34&amp;nbsp;&amp;nbsp;" style="text;html=1;strokeColor=none;fillColor=none;align=center;verticalAlign=middle;whiteSpace=wrap;rounded=0;" vertex="1" parent="1">
          <mxGeometry x="-1780" y="-780" width="185" height="30" as="geometry" />
        </mxCell>
        <mxCell id="4pbtzh1Q4UVARywyvd64-40" value="" style="rounded=1;whiteSpace=wrap;html=1;" vertex="1" parent="1">
          <mxGeometry x="-1895" y="-655" width="600" height="175" as="geometry" />
        </mxCell>
        <mxCell id="4pbtzh1Q4UVARywyvd64-41" value="" style="sketch=0;outlineConnect=0;fontColor=#232F3E;gradientColor=none;fillColor=#030100;strokeColor=default;dashed=0;verticalLabelPosition=bottom;verticalAlign=top;align=center;html=1;fontSize=12;fontStyle=0;aspect=fixed;pointerEvents=1;shape=mxgraph.aws4.container_registry_image;strokeWidth=0;" vertex="1" parent="1">
          <mxGeometry x="-1865" y="-625" width="100" height="100" as="geometry" />
        </mxCell>
        <mxCell id="4pbtzh1Q4UVARywyvd64-42" value="&lt;font style=&quot;font-size: 20px;&quot;&gt;Product Name&lt;/font&gt;" style="text;html=1;strokeColor=none;fillColor=none;align=center;verticalAlign=middle;whiteSpace=wrap;rounded=0;" vertex="1" parent="1">
          <mxGeometry x="-1810" y="-625" width="240" height="40" as="geometry" />
        </mxCell>
        <mxCell id="4pbtzh1Q4UVARywyvd64-43" value="" style="verticalLabelPosition=bottom;verticalAlign=top;html=1;shape=mxgraph.basic.star" vertex="1" parent="1">
          <mxGeometry x="-1755" y="-595" width="30" height="30" as="geometry" />
        </mxCell>
        <mxCell id="4pbtzh1Q4UVARywyvd64-44" value="" style="verticalLabelPosition=bottom;verticalAlign=top;html=1;shape=mxgraph.basic.star" vertex="1" parent="1">
          <mxGeometry x="-1725" y="-595" width="30" height="30" as="geometry" />
        </mxCell>
        <mxCell id="4pbtzh1Q4UVARywyvd64-45" value="" style="verticalLabelPosition=bottom;verticalAlign=top;html=1;shape=mxgraph.basic.star" vertex="1" parent="1">
          <mxGeometry x="-1695" y="-595" width="30" height="30" as="geometry" />
        </mxCell>
        <mxCell id="4pbtzh1Q4UVARywyvd64-46" value="" style="verticalLabelPosition=bottom;verticalAlign=top;html=1;shape=mxgraph.basic.star" vertex="1" parent="1">
          <mxGeometry x="-1665" y="-595" width="30" height="30" as="geometry" />
        </mxCell>
        <mxCell id="4pbtzh1Q4UVARywyvd64-47" value="" style="verticalLabelPosition=bottom;verticalAlign=top;html=1;shape=mxgraph.basic.star" vertex="1" parent="1">
          <mxGeometry x="-1635" y="-595" width="30" height="30" as="geometry" />
        </mxCell>
        <mxCell id="4pbtzh1Q4UVARywyvd64-48" value="&lt;h1&gt;&lt;br&gt;&lt;/h1&gt;&lt;p&gt;Lorem ipsum dolor sit amet, consectetur adipisicing elit, sed do eiusmod tempor incididunt ut labore et dolore magna aliqua.&lt;/p&gt;" style="text;html=1;strokeColor=none;fillColor=none;spacing=5;spacingTop=-20;whiteSpace=wrap;overflow=hidden;rounded=0;" vertex="1" parent="1">
          <mxGeometry x="-1755" y="-565" width="450" height="120" as="geometry" />
        </mxCell>
        <mxCell id="4pbtzh1Q4UVARywyvd64-49" value="Products status" style="text;html=1;strokeColor=none;fillColor=none;align=center;verticalAlign=middle;whiteSpace=wrap;rounded=0;" vertex="1" parent="1">
          <mxGeometry x="-1775" y="-565" width="140" height="30" as="geometry" />
        </mxCell>
        <mxCell id="4pbtzh1Q4UVARywyvd64-50" value="category || £12.34&amp;nbsp;&amp;nbsp;" style="text;html=1;strokeColor=none;fillColor=none;align=center;verticalAlign=middle;whiteSpace=wrap;rounded=0;" vertex="1" parent="1">
          <mxGeometry x="-1790" y="-545" width="185" height="30" as="geometry" />
        </mxCell>
        <mxCell id="4pbtzh1Q4UVARywyvd64-51" value="" style="rounded=1;whiteSpace=wrap;html=1;" vertex="1" parent="1">
          <mxGeometry x="-741.25" y="-445" width="320" height="310" as="geometry" />
        </mxCell>
        <mxCell id="4pbtzh1Q4UVARywyvd64-52" value="&lt;font style=&quot;font-size: 20px;&quot;&gt;Product Name&lt;/font&gt;" style="text;html=1;strokeColor=none;fillColor=none;align=center;verticalAlign=middle;whiteSpace=wrap;rounded=0;" vertex="1" parent="1">
          <mxGeometry x="-758.75" y="-430" width="240" height="40" as="geometry" />
        </mxCell>
        <mxCell id="4pbtzh1Q4UVARywyvd64-53" value="" style="verticalLabelPosition=bottom;verticalAlign=top;html=1;shape=mxgraph.basic.star" vertex="1" parent="1">
          <mxGeometry x="-713.75" y="-400" width="30" height="30" as="geometry" />
        </mxCell>
        <mxCell id="4pbtzh1Q4UVARywyvd64-54" value="" style="verticalLabelPosition=bottom;verticalAlign=top;html=1;shape=mxgraph.basic.star" vertex="1" parent="1">
          <mxGeometry x="-683.75" y="-400" width="30" height="30" as="geometry" />
        </mxCell>
        <mxCell id="4pbtzh1Q4UVARywyvd64-55" value="" style="verticalLabelPosition=bottom;verticalAlign=top;html=1;shape=mxgraph.basic.star" vertex="1" parent="1">
          <mxGeometry x="-653.75" y="-400" width="30" height="30" as="geometry" />
        </mxCell>
        <mxCell id="4pbtzh1Q4UVARywyvd64-56" value="" style="verticalLabelPosition=bottom;verticalAlign=top;html=1;shape=mxgraph.basic.star" vertex="1" parent="1">
          <mxGeometry x="-623.75" y="-400" width="30" height="30" as="geometry" />
        </mxCell>
        <mxCell id="4pbtzh1Q4UVARywyvd64-57" value="" style="verticalLabelPosition=bottom;verticalAlign=top;html=1;shape=mxgraph.basic.star" vertex="1" parent="1">
          <mxGeometry x="-593.75" y="-400" width="30" height="30" as="geometry" />
        </mxCell>
        <mxCell id="4pbtzh1Q4UVARywyvd64-58" value="&lt;h1&gt;&lt;br&gt;&lt;/h1&gt;&lt;p&gt;Lorem ipsum dolor sit amet, consectetur adipisicing elit, sed do eiusmod tempor incididunt ut labore et dolore magna aliqua.&lt;/p&gt;" style="text;html=1;strokeColor=none;fillColor=none;spacing=5;spacingTop=-20;whiteSpace=wrap;overflow=hidden;rounded=0;" vertex="1" parent="1">
          <mxGeometry x="-721.25" y="-380" width="245" height="120" as="geometry" />
        </mxCell>
        <mxCell id="4pbtzh1Q4UVARywyvd64-59" value="Products status" style="text;html=1;strokeColor=none;fillColor=none;align=center;verticalAlign=middle;whiteSpace=wrap;rounded=0;" vertex="1" parent="1">
          <mxGeometry x="-731.25" y="-370" width="140" height="30" as="geometry" />
        </mxCell>
        <mxCell id="4pbtzh1Q4UVARywyvd64-60" value="category || £12.34&amp;nbsp;&amp;nbsp;" style="text;html=1;strokeColor=none;fillColor=none;align=center;verticalAlign=middle;whiteSpace=wrap;rounded=0;" vertex="1" parent="1">
          <mxGeometry x="-748.75" y="-355" width="185" height="30" as="geometry" />
        </mxCell>
        <mxCell id="4pbtzh1Q4UVARywyvd64-61" value="" style="sketch=0;outlineConnect=0;fontColor=#232F3E;gradientColor=none;fillColor=#030100;strokeColor=default;dashed=0;verticalLabelPosition=bottom;verticalAlign=top;align=center;html=1;fontSize=12;fontStyle=0;aspect=fixed;pointerEvents=1;shape=mxgraph.aws4.container_registry_image;strokeWidth=0;" vertex="1" parent="1">
          <mxGeometry x="-643.75" y="-275" width="130" height="130" as="geometry" />
        </mxCell>
        <mxCell id="4pbtzh1Q4UVARywyvd64-73" value="" style="rounded=1;whiteSpace=wrap;html=1;" vertex="1" parent="1">
          <mxGeometry x="-752.5" y="-875" width="320" height="310" as="geometry" />
        </mxCell>
        <mxCell id="4pbtzh1Q4UVARywyvd64-74" value="&lt;font style=&quot;font-size: 20px;&quot;&gt;Product Name&lt;/font&gt;" style="text;html=1;strokeColor=none;fillColor=none;align=center;verticalAlign=middle;whiteSpace=wrap;rounded=0;" vertex="1" parent="1">
          <mxGeometry x="-770" y="-860" width="240" height="40" as="geometry" />
        </mxCell>
        <mxCell id="4pbtzh1Q4UVARywyvd64-75" value="" style="verticalLabelPosition=bottom;verticalAlign=top;html=1;shape=mxgraph.basic.star" vertex="1" parent="1">
          <mxGeometry x="-725" y="-830" width="30" height="30" as="geometry" />
        </mxCell>
        <mxCell id="4pbtzh1Q4UVARywyvd64-76" value="" style="verticalLabelPosition=bottom;verticalAlign=top;html=1;shape=mxgraph.basic.star" vertex="1" parent="1">
          <mxGeometry x="-695" y="-830" width="30" height="30" as="geometry" />
        </mxCell>
        <mxCell id="4pbtzh1Q4UVARywyvd64-77" value="" style="verticalLabelPosition=bottom;verticalAlign=top;html=1;shape=mxgraph.basic.star" vertex="1" parent="1">
          <mxGeometry x="-665" y="-830" width="30" height="30" as="geometry" />
        </mxCell>
        <mxCell id="4pbtzh1Q4UVARywyvd64-78" value="" style="verticalLabelPosition=bottom;verticalAlign=top;html=1;shape=mxgraph.basic.star" vertex="1" parent="1">
          <mxGeometry x="-635" y="-830" width="30" height="30" as="geometry" />
        </mxCell>
        <mxCell id="4pbtzh1Q4UVARywyvd64-79" value="" style="verticalLabelPosition=bottom;verticalAlign=top;html=1;shape=mxgraph.basic.star" vertex="1" parent="1">
          <mxGeometry x="-605" y="-830" width="30" height="30" as="geometry" />
        </mxCell>
        <mxCell id="4pbtzh1Q4UVARywyvd64-80" value="&lt;h1&gt;&lt;br&gt;&lt;/h1&gt;&lt;p&gt;Lorem ipsum dolor sit amet, consectetur adipisicing elit, sed do eiusmod tempor incididunt ut labore et dolore magna aliqua.&lt;/p&gt;" style="text;html=1;strokeColor=none;fillColor=none;spacing=5;spacingTop=-20;whiteSpace=wrap;overflow=hidden;rounded=0;" vertex="1" parent="1">
          <mxGeometry x="-732.5" y="-810" width="245" height="120" as="geometry" />
        </mxCell>
        <mxCell id="4pbtzh1Q4UVARywyvd64-81" value="Products status" style="text;html=1;strokeColor=none;fillColor=none;align=center;verticalAlign=middle;whiteSpace=wrap;rounded=0;" vertex="1" parent="1">
          <mxGeometry x="-742.5" y="-800" width="140" height="30" as="geometry" />
        </mxCell>
        <mxCell id="4pbtzh1Q4UVARywyvd64-82" value="category || £12.34&amp;nbsp;&amp;nbsp;" style="text;html=1;strokeColor=none;fillColor=none;align=center;verticalAlign=middle;whiteSpace=wrap;rounded=0;" vertex="1" parent="1">
          <mxGeometry x="-760" y="-785" width="185" height="30" as="geometry" />
        </mxCell>
        <mxCell id="4pbtzh1Q4UVARywyvd64-83" value="" style="sketch=0;outlineConnect=0;fontColor=#232F3E;gradientColor=none;fillColor=#030100;strokeColor=default;dashed=0;verticalLabelPosition=bottom;verticalAlign=top;align=center;html=1;fontSize=12;fontStyle=0;aspect=fixed;pointerEvents=1;shape=mxgraph.aws4.container_registry_image;strokeWidth=0;" vertex="1" parent="1">
          <mxGeometry x="-655" y="-705" width="130" height="130" as="geometry" />
        </mxCell>
        <mxCell id="4pbtzh1Q4UVARywyvd64-87" style="edgeStyle=orthogonalEdgeStyle;rounded=0;orthogonalLoop=1;jettySize=auto;html=1;strokeWidth=4;" edge="1" parent="1" source="4pbtzh1Q4UVARywyvd64-86">
          <mxGeometry relative="1" as="geometry">
            <mxPoint x="-1308.5276600230823" y="-825.4666923754141" as="targetPoint" />
          </mxGeometry>
        </mxCell>
        <mxCell id="4pbtzh1Q4UVARywyvd64-93" style="edgeStyle=orthogonalEdgeStyle;rounded=0;orthogonalLoop=1;jettySize=auto;html=1;strokeWidth=4;" edge="1" parent="1" source="4pbtzh1Q4UVARywyvd64-86">
          <mxGeometry relative="1" as="geometry">
            <mxPoint x="-720" y="-700" as="targetPoint" />
            <Array as="points">
              <mxPoint x="-740" y="-825" />
            </Array>
          </mxGeometry>
        </mxCell>
        <mxCell id="4pbtzh1Q4UVARywyvd64-95" style="edgeStyle=orthogonalEdgeStyle;shape=connector;rounded=0;orthogonalLoop=1;jettySize=auto;html=1;labelBackgroundColor=default;strokeColor=default;strokeWidth=4;align=center;verticalAlign=middle;fontFamily=Helvetica;fontSize=12;fontColor=default;endArrow=classic;exitX=0;exitY=1;exitDx=0;exitDy=0;" edge="1" parent="1" source="4pbtzh1Q4UVARywyvd64-86" target="4pbtzh1Q4UVARywyvd64-40">
          <mxGeometry relative="1" as="geometry">
            <mxPoint x="-1307.6268997192383" y="-540.1946907043457" as="targetPoint" />
            <mxPoint x="-970" y="-710" as="sourcePoint" />
            <Array as="points">
              <mxPoint x="-1110" y="-810" />
              <mxPoint x="-1110" y="-583" />
            </Array>
          </mxGeometry>
        </mxCell>
        <mxCell id="4pbtzh1Q4UVARywyvd64-86" value="&lt;font style=&quot;font-size: 20px;&quot;&gt;Box with with all the product information in eg. price and name&lt;/font&gt;" style="text;html=1;strokeColor=none;fillColor=none;align=center;verticalAlign=middle;whiteSpace=wrap;rounded=0;" vertex="1" parent="1">
          <mxGeometry x="-1050" y="-840" width="180" height="30" as="geometry" />
        </mxCell>
        <mxCell id="4pbtzh1Q4UVARywyvd64-89" style="edgeStyle=orthogonalEdgeStyle;rounded=0;orthogonalLoop=1;jettySize=auto;html=1;strokeWidth=4;" edge="1" parent="1" source="4pbtzh1Q4UVARywyvd64-88">
          <mxGeometry relative="1" as="geometry">
            <mxPoint x="-1499" y="-938" as="targetPoint" />
            <Array as="points">
              <mxPoint x="-1499" y="-955" />
            </Array>
          </mxGeometry>
        </mxCell>
        <mxCell id="4pbtzh1Q4UVARywyvd64-92" style="edgeStyle=orthogonalEdgeStyle;rounded=0;orthogonalLoop=1;jettySize=auto;html=1;strokeWidth=4;" edge="1" parent="1" source="4pbtzh1Q4UVARywyvd64-88">
          <mxGeometry relative="1" as="geometry">
            <mxPoint x="-663.3485495827413" y="-955.4942506732361" as="targetPoint" />
          </mxGeometry>
        </mxCell>
        <mxCell id="4pbtzh1Q4UVARywyvd64-88" value="&lt;font style=&quot;font-size: 20px;&quot;&gt;Title that tells the users what the page consist of. Tells the user that they are view all their products.&amp;nbsp;&amp;nbsp;&lt;/font&gt;" style="text;html=1;strokeColor=none;fillColor=none;align=center;verticalAlign=middle;whiteSpace=wrap;rounded=0;" vertex="1" parent="1">
          <mxGeometry x="-1040" y="-970" width="180" height="30" as="geometry" />
        </mxCell>
        <mxCell id="4pbtzh1Q4UVARywyvd64-96" style="edgeStyle=orthogonalEdgeStyle;shape=connector;rounded=0;orthogonalLoop=1;jettySize=auto;html=1;labelBackgroundColor=default;strokeColor=default;strokeWidth=4;align=center;verticalAlign=middle;fontFamily=Helvetica;fontSize=12;fontColor=default;endArrow=classic;" edge="1" parent="1" source="4pbtzh1Q4UVARywyvd64-94">
          <mxGeometry relative="1" as="geometry">
            <mxPoint x="-1509.8996963500977" y="-352.31576410929347" as="targetPoint" />
          </mxGeometry>
        </mxCell>
        <mxCell id="4pbtzh1Q4UVARywyvd64-97" style="edgeStyle=orthogonalEdgeStyle;shape=connector;rounded=0;orthogonalLoop=1;jettySize=auto;html=1;labelBackgroundColor=default;strokeColor=default;strokeWidth=4;align=center;verticalAlign=middle;fontFamily=Helvetica;fontSize=12;fontColor=default;endArrow=classic;" edge="1" parent="1" source="4pbtzh1Q4UVARywyvd64-94">
          <mxGeometry relative="1" as="geometry">
            <mxPoint x="-713" y="-409" as="targetPoint" />
            <Array as="points">
              <mxPoint x="-930" y="-410" />
            </Array>
          </mxGeometry>
        </mxCell>
        <mxCell id="4pbtzh1Q4UVARywyvd64-94" value="&lt;font style=&quot;font-size: 20px;&quot;&gt;The products name&lt;/font&gt;" style="text;html=1;strokeColor=none;fillColor=none;align=center;verticalAlign=middle;whiteSpace=wrap;rounded=0;" vertex="1" parent="1">
          <mxGeometry x="-1140" y="-430" width="180" height="30" as="geometry" />
        </mxCell>
        <mxCell id="4pbtzh1Q4UVARywyvd64-105" style="edgeStyle=orthogonalEdgeStyle;shape=connector;rounded=0;orthogonalLoop=1;jettySize=auto;html=1;labelBackgroundColor=default;strokeColor=default;strokeWidth=4;align=center;verticalAlign=middle;fontFamily=Helvetica;fontSize=12;fontColor=default;endArrow=classic;" edge="1" parent="1" source="4pbtzh1Q4UVARywyvd64-98">
          <mxGeometry relative="1" as="geometry">
            <mxPoint x="-727.9607364430144" y="-383.98036822150743" as="targetPoint" />
            <Array as="points">
              <mxPoint x="-790" y="-345" />
              <mxPoint x="-790" y="-384" />
            </Array>
          </mxGeometry>
        </mxCell>
        <mxCell id="4pbtzh1Q4UVARywyvd64-106" style="edgeStyle=orthogonalEdgeStyle;shape=connector;rounded=0;orthogonalLoop=1;jettySize=auto;html=1;labelBackgroundColor=default;strokeColor=default;strokeWidth=4;align=center;verticalAlign=middle;fontFamily=Helvetica;fontSize=12;fontColor=default;endArrow=classic;" edge="1" parent="1" source="4pbtzh1Q4UVARywyvd64-98">
          <mxGeometry relative="1" as="geometry">
            <mxPoint x="-1447.9607364430149" y="-321.23529411764684" as="targetPoint" />
          </mxGeometry>
        </mxCell>
        <mxCell id="4pbtzh1Q4UVARywyvd64-98" value="&lt;font style=&quot;font-size: 20px;&quot;&gt;The products start rating (they are going to be a gold colour)&lt;/font&gt;" style="text;html=1;strokeColor=none;fillColor=none;align=center;verticalAlign=middle;whiteSpace=wrap;rounded=0;" vertex="1" parent="1">
          <mxGeometry x="-1060" y="-360" width="180" height="30" as="geometry" />
        </mxCell>
        <mxCell id="4pbtzh1Q4UVARywyvd64-103" style="edgeStyle=orthogonalEdgeStyle;shape=connector;rounded=0;orthogonalLoop=1;jettySize=auto;html=1;labelBackgroundColor=default;strokeColor=default;strokeWidth=4;align=center;verticalAlign=middle;fontFamily=Helvetica;fontSize=12;fontColor=default;endArrow=classic;" edge="1" parent="1" source="4pbtzh1Q4UVARywyvd64-99">
          <mxGeometry relative="1" as="geometry">
            <mxPoint x="-1288" y="-507" as="targetPoint" />
            <Array as="points">
              <mxPoint x="-1200" y="-570" />
              <mxPoint x="-1200" y="-507" />
            </Array>
          </mxGeometry>
        </mxCell>
        <mxCell id="4pbtzh1Q4UVARywyvd64-104" style="edgeStyle=orthogonalEdgeStyle;shape=connector;rounded=0;orthogonalLoop=1;jettySize=auto;html=1;labelBackgroundColor=default;strokeColor=default;strokeWidth=4;align=center;verticalAlign=middle;fontFamily=Helvetica;fontSize=12;fontColor=default;endArrow=classic;" edge="1" parent="1" source="4pbtzh1Q4UVARywyvd64-99">
          <mxGeometry relative="1" as="geometry">
            <mxPoint x="-742.6541714138457" y="-526.6535085042319" as="targetPoint" />
            <Array as="points">
              <mxPoint x="-840" y="-570" />
              <mxPoint x="-840" y="-527" />
            </Array>
          </mxGeometry>
        </mxCell>
        <mxCell id="4pbtzh1Q4UVARywyvd64-99" value="&lt;font style=&quot;font-size: 20px;&quot;&gt;All the users products will show on this page bellow the title.&lt;/font&gt;" style="text;html=1;strokeColor=none;fillColor=none;align=center;verticalAlign=middle;whiteSpace=wrap;rounded=0;" vertex="1" parent="1">
          <mxGeometry x="-1040" y="-585" width="180" height="30" as="geometry" />
        </mxCell>
        <mxCell id="4pbtzh1Q4UVARywyvd64-108" style="edgeStyle=orthogonalEdgeStyle;shape=connector;rounded=0;orthogonalLoop=1;jettySize=auto;html=1;labelBackgroundColor=default;strokeColor=default;strokeWidth=4;align=center;verticalAlign=middle;fontFamily=Helvetica;fontSize=12;fontColor=default;endArrow=classic;" edge="1" parent="1" source="4pbtzh1Q4UVARywyvd64-107">
          <mxGeometry relative="1" as="geometry">
            <mxPoint x="-1505.215626436121" y="-294.568603515625" as="targetPoint" />
            <Array as="points">
              <mxPoint x="-1180" y="-240" />
              <mxPoint x="-1180" y="-295" />
            </Array>
          </mxGeometry>
        </mxCell>
        <mxCell id="4pbtzh1Q4UVARywyvd64-109" style="edgeStyle=orthogonalEdgeStyle;shape=connector;rounded=0;orthogonalLoop=1;jettySize=auto;html=1;labelBackgroundColor=default;strokeColor=default;strokeWidth=4;align=center;verticalAlign=middle;fontFamily=Helvetica;fontSize=12;fontColor=default;endArrow=classic;" edge="1" parent="1" source="4pbtzh1Q4UVARywyvd64-107">
          <mxGeometry relative="1" as="geometry">
            <mxPoint x="-722.4704446231617" y="-355.74507410386013" as="targetPoint" />
            <Array as="points">
              <mxPoint x="-750" y="-240" />
              <mxPoint x="-750" y="-356" />
            </Array>
          </mxGeometry>
        </mxCell>
        <mxCell id="4pbtzh1Q4UVARywyvd64-107" value="&lt;font style=&quot;font-size: 20px;&quot;&gt;Product category&amp;nbsp;and price&lt;/font&gt;" style="text;html=1;strokeColor=none;fillColor=none;align=center;verticalAlign=middle;whiteSpace=wrap;rounded=0;" vertex="1" parent="1">
          <mxGeometry x="-1020" y="-255" width="180" height="30" as="geometry" />
        </mxCell>
        <mxCell id="4pbtzh1Q4UVARywyvd64-111" style="edgeStyle=orthogonalEdgeStyle;shape=connector;rounded=0;orthogonalLoop=1;jettySize=auto;html=1;labelBackgroundColor=default;strokeColor=default;strokeWidth=4;align=center;verticalAlign=middle;fontFamily=Helvetica;fontSize=12;fontColor=default;endArrow=classic;" edge="1" parent="1" source="4pbtzh1Q4UVARywyvd64-110">
          <mxGeometry relative="1" as="geometry">
            <mxPoint x="-1353.0475027901784" y="-230.14285714285688" as="targetPoint" />
          </mxGeometry>
        </mxCell>
        <mxCell id="4pbtzh1Q4UVARywyvd64-112" style="edgeStyle=orthogonalEdgeStyle;shape=connector;rounded=0;orthogonalLoop=1;jettySize=auto;html=1;labelBackgroundColor=default;strokeColor=default;strokeWidth=4;align=center;verticalAlign=middle;fontFamily=Helvetica;fontSize=12;fontColor=default;endArrow=classic;" edge="1" parent="1" source="4pbtzh1Q4UVARywyvd64-110">
          <mxGeometry relative="1" as="geometry">
            <mxPoint x="-670.1903599330353" y="-279.6666957310267" as="targetPoint" />
          </mxGeometry>
        </mxCell>
        <mxCell id="4pbtzh1Q4UVARywyvd64-110" value="&lt;font style=&quot;font-size: 20px;&quot;&gt;The products description&amp;nbsp;&lt;/font&gt;" style="text;html=1;strokeColor=none;fillColor=none;align=center;verticalAlign=middle;whiteSpace=wrap;rounded=0;" vertex="1" parent="1">
          <mxGeometry x="-1010" y="-190" width="180" height="30" as="geometry" />
        </mxCell>
        <mxCell id="4pbtzh1Q4UVARywyvd64-114" style="edgeStyle=orthogonalEdgeStyle;shape=connector;rounded=0;orthogonalLoop=1;jettySize=auto;html=1;labelBackgroundColor=default;strokeColor=default;strokeWidth=4;align=center;verticalAlign=middle;fontFamily=Helvetica;fontSize=12;fontColor=default;endArrow=classic;" edge="1" parent="1" source="4pbtzh1Q4UVARywyvd64-113">
          <mxGeometry relative="1" as="geometry">
            <mxPoint x="-607.3332170758927" y="-146.33339146205344" as="targetPoint" />
          </mxGeometry>
        </mxCell>
        <mxCell id="4pbtzh1Q4UVARywyvd64-115" style="edgeStyle=orthogonalEdgeStyle;shape=connector;rounded=0;orthogonalLoop=1;jettySize=auto;html=1;labelBackgroundColor=default;strokeColor=default;strokeWidth=4;align=center;verticalAlign=middle;fontFamily=Helvetica;fontSize=12;fontColor=default;endArrow=classic;" edge="1" parent="1" source="4pbtzh1Q4UVARywyvd64-113">
          <mxGeometry relative="1" as="geometry">
            <mxPoint x="-1669.2380807059149" y="-250.14285714285688" as="targetPoint" />
          </mxGeometry>
        </mxCell>
        <mxCell id="4pbtzh1Q4UVARywyvd64-113" value="&lt;font style=&quot;font-size: 20px;&quot;&gt;The first image of the product.&amp;nbsp;&lt;/font&gt;" style="text;html=1;strokeColor=none;fillColor=none;align=center;verticalAlign=middle;whiteSpace=wrap;rounded=0;" vertex="1" parent="1">
          <mxGeometry x="-1200" y="-110" width="180" height="30" as="geometry" />
        </mxCell>
        <mxCell id="4pbtzh1Q4UVARywyvd64-117" value="`" style="rounded=0;whiteSpace=wrap;html=1;" vertex="1" parent="1">
          <mxGeometry x="-2065" y="-50" width="830" height="500" as="geometry" />
        </mxCell>
        <mxCell id="4pbtzh1Q4UVARywyvd64-116" value="" style="verticalLabelPosition=bottom;shadow=0;dashed=0;align=center;html=1;verticalAlign=top;strokeWidth=1;shape=mxgraph.mockup.misc.loading_circle_1;pointerEvents=1;rounded=0;fontFamily=Helvetica;fontSize=12;fontColor=default;fillColor=none;gradientColor=none;" vertex="1" parent="1">
          <mxGeometry x="-1765" y="160" width="140" height="140" as="geometry" />
        </mxCell>
        <mxCell id="4pbtzh1Q4UVARywyvd64-118" value="&lt;font style=&quot;font-size: 27px;&quot;&gt;View your Products&amp;nbsp;&lt;/font&gt;" style="text;html=1;strokeColor=none;fillColor=none;align=center;verticalAlign=middle;whiteSpace=wrap;rounded=0;" vertex="1" parent="1">
          <mxGeometry x="-1845" y="-20" width="370" height="30" as="geometry" />
        </mxCell>
        <mxCell id="4pbtzh1Q4UVARywyvd64-119" value="" style="rounded=0;whiteSpace=wrap;html=1;" vertex="1" parent="1">
          <mxGeometry x="-810" y="-30" width="360" height="500" as="geometry" />
        </mxCell>
        <mxCell id="4pbtzh1Q4UVARywyvd64-120" value="&lt;font style=&quot;font-size: 27px;&quot;&gt;View your Products&amp;nbsp;&lt;/font&gt;" style="text;html=1;strokeColor=none;fillColor=none;align=center;verticalAlign=middle;whiteSpace=wrap;rounded=0;" vertex="1" parent="1">
          <mxGeometry x="-702.5" y="10" width="145" height="30" as="geometry" />
        </mxCell>
        <mxCell id="4pbtzh1Q4UVARywyvd64-121" value="" style="verticalLabelPosition=bottom;shadow=0;dashed=0;align=center;html=1;verticalAlign=top;strokeWidth=1;shape=mxgraph.mockup.misc.loading_circle_1;pointerEvents=1;rounded=0;fontFamily=Helvetica;fontSize=12;fontColor=default;fillColor=none;gradientColor=none;" vertex="1" parent="1">
          <mxGeometry x="-673.75" y="155" width="110" height="110" as="geometry" />
        </mxCell>
        <mxCell id="4pbtzh1Q4UVARywyvd64-123" style="edgeStyle=orthogonalEdgeStyle;shape=connector;rounded=0;orthogonalLoop=1;jettySize=auto;html=1;labelBackgroundColor=default;strokeColor=default;strokeWidth=4;align=center;verticalAlign=middle;fontFamily=Helvetica;fontSize=12;fontColor=default;endArrow=classic;" edge="1" parent="1" source="4pbtzh1Q4UVARywyvd64-122">
          <mxGeometry relative="1" as="geometry">
            <mxPoint x="-1636.8570556640625" y="164.1429443359375" as="targetPoint" />
            <Array as="points">
              <mxPoint x="-1390" y="55" />
              <mxPoint x="-1390" y="164" />
            </Array>
          </mxGeometry>
        </mxCell>
        <mxCell id="4pbtzh1Q4UVARywyvd64-124" style="edgeStyle=orthogonalEdgeStyle;shape=connector;rounded=0;orthogonalLoop=1;jettySize=auto;html=1;labelBackgroundColor=default;strokeColor=default;strokeWidth=3;align=center;verticalAlign=middle;fontFamily=Helvetica;fontSize=12;fontColor=default;endArrow=classic;" edge="1" parent="1" source="4pbtzh1Q4UVARywyvd64-122">
          <mxGeometry relative="1" as="geometry">
            <mxPoint x="-689.2380371093745" y="215.57151576450906" as="targetPoint" />
            <Array as="points">
              <mxPoint x="-860" y="55" />
              <mxPoint x="-860" y="216" />
            </Array>
          </mxGeometry>
        </mxCell>
        <mxCell id="4pbtzh1Q4UVARywyvd64-122" value="&lt;font style=&quot;font-size: 20px;&quot;&gt;Loading animation&amp;nbsp;when the UI is trying to gatherer&amp;nbsp;the users products&amp;nbsp;&lt;/font&gt;" style="text;html=1;strokeColor=none;fillColor=none;align=center;verticalAlign=middle;whiteSpace=wrap;rounded=0;" vertex="1" parent="1">
          <mxGeometry x="-1098.5" y="40" width="180" height="30" as="geometry" />
        </mxCell>
        <mxCell id="4pbtzh1Q4UVARywyvd64-125" value="`" style="rounded=0;whiteSpace=wrap;html=1;" vertex="1" parent="1">
          <mxGeometry x="-2070" y="560" width="830" height="500" as="geometry" />
        </mxCell>
        <mxCell id="4pbtzh1Q4UVARywyvd64-126" value="&lt;font style=&quot;font-size: 27px;&quot;&gt;View your Products&amp;nbsp;&lt;/font&gt;" style="text;html=1;strokeColor=none;fillColor=none;align=center;verticalAlign=middle;whiteSpace=wrap;rounded=0;" vertex="1" parent="1">
          <mxGeometry x="-1850" y="590" width="370" height="30" as="geometry" />
        </mxCell>
        <mxCell id="4pbtzh1Q4UVARywyvd64-127" value="" style="rounded=0;whiteSpace=wrap;html=1;" vertex="1" parent="1">
          <mxGeometry x="-815" y="580" width="360" height="500" as="geometry" />
        </mxCell>
        <mxCell id="4pbtzh1Q4UVARywyvd64-128" value="&lt;font style=&quot;font-size: 27px;&quot;&gt;View your Products&amp;nbsp;&lt;/font&gt;" style="text;html=1;strokeColor=none;fillColor=none;align=center;verticalAlign=middle;whiteSpace=wrap;rounded=0;" vertex="1" parent="1">
          <mxGeometry x="-707.5" y="620" width="145" height="30" as="geometry" />
        </mxCell>
        <mxCell id="4pbtzh1Q4UVARywyvd64-129" value="&lt;font style=&quot;font-size: 23px;&quot;&gt;You do not currently have any products&amp;nbsp;&lt;/font&gt;" style="text;html=1;strokeColor=none;fillColor=none;align=center;verticalAlign=middle;whiteSpace=wrap;rounded=0;fontSize=12;fontFamily=Helvetica;fontColor=default;" vertex="1" parent="1">
          <mxGeometry x="-1746" y="750" width="160" height="30" as="geometry" />
        </mxCell>
        <mxCell id="4pbtzh1Q4UVARywyvd64-132" value="&lt;font style=&quot;font-size: 23px;&quot;&gt;You do not currently have any products&amp;nbsp;&lt;/font&gt;" style="text;html=1;strokeColor=none;fillColor=none;align=center;verticalAlign=middle;whiteSpace=wrap;rounded=0;fontSize=12;fontFamily=Helvetica;fontColor=default;" vertex="1" parent="1">
          <mxGeometry x="-715" y="780" width="160" height="30" as="geometry" />
        </mxCell>
        <mxCell id="4pbtzh1Q4UVARywyvd64-133" value="" style="rounded=0;whiteSpace=wrap;html=1;align=center;verticalAlign=middle;fontFamily=Helvetica;fontSize=12;fontColor=default;fillColor=none;gradientColor=none;" vertex="1" parent="1">
          <mxGeometry x="-1781" y="710" width="220" height="130" as="geometry" />
        </mxCell>
        <mxCell id="4pbtzh1Q4UVARywyvd64-135" value="" style="rounded=0;whiteSpace=wrap;html=1;align=center;verticalAlign=middle;fontFamily=Helvetica;fontSize=12;fontColor=default;fillColor=none;gradientColor=none;" vertex="1" parent="1">
          <mxGeometry x="-748.75" y="730" width="220" height="130" as="geometry" />
        </mxCell>
        <mxCell id="4pbtzh1Q4UVARywyvd64-138" style="edgeStyle=orthogonalEdgeStyle;shape=connector;rounded=0;orthogonalLoop=1;jettySize=auto;html=1;labelBackgroundColor=default;strokeColor=default;strokeWidth=4;align=center;verticalAlign=middle;fontFamily=Helvetica;fontSize=12;fontColor=default;endArrow=classic;" edge="1" parent="1" source="4pbtzh1Q4UVARywyvd64-136">
          <mxGeometry relative="1" as="geometry">
            <mxPoint x="-1579.6665649414062" y="732.5" as="targetPoint" />
          </mxGeometry>
        </mxCell>
        <mxCell id="4pbtzh1Q4UVARywyvd64-139" style="edgeStyle=orthogonalEdgeStyle;shape=connector;rounded=0;orthogonalLoop=1;jettySize=auto;html=1;labelBackgroundColor=default;strokeColor=default;strokeWidth=4;align=center;verticalAlign=middle;fontFamily=Helvetica;fontSize=12;fontColor=default;endArrow=classic;" edge="1" parent="1" source="4pbtzh1Q4UVARywyvd64-136">
          <mxGeometry relative="1" as="geometry">
            <mxPoint x="-731.3331298828125" y="735.8332824707031" as="targetPoint" />
          </mxGeometry>
        </mxCell>
        <mxCell id="4pbtzh1Q4UVARywyvd64-136" value="&lt;font style=&quot;font-size: 20px;&quot;&gt;Message to the user to them them that they do not have any products&amp;nbsp;&lt;/font&gt;" style="text;html=1;strokeColor=none;fillColor=none;align=center;verticalAlign=middle;whiteSpace=wrap;rounded=0;" vertex="1" parent="1">
          <mxGeometry x="-1120" y="720" width="180" height="30" as="geometry" />
        </mxCell>
        <mxCell id="4pbtzh1Q4UVARywyvd64-142" style="edgeStyle=orthogonalEdgeStyle;shape=connector;rounded=0;orthogonalLoop=1;jettySize=auto;html=1;labelBackgroundColor=default;strokeColor=default;strokeWidth=4;align=center;verticalAlign=middle;fontFamily=Helvetica;fontSize=12;fontColor=default;endArrow=classic;" edge="1" parent="1" source="4pbtzh1Q4UVARywyvd64-141">
          <mxGeometry relative="1" as="geometry">
            <mxPoint x="-1787" y="-676" as="targetPoint" />
            <Array as="points">
              <mxPoint x="-1961" y="-675" />
              <mxPoint x="-1852" y="-676" />
              <mxPoint x="-1852" y="-656" />
            </Array>
          </mxGeometry>
        </mxCell>
        <mxCell id="4pbtzh1Q4UVARywyvd64-141" value="&lt;span style=&quot;font-size: 20px;&quot;&gt;Space between other items so its easier for the user to see&amp;nbsp;&lt;/span&gt;" style="text;html=1;strokeColor=none;fillColor=none;align=center;verticalAlign=middle;whiteSpace=wrap;rounded=0;" vertex="1" parent="1">
          <mxGeometry x="-2250" y="-690" width="180" height="30" as="geometry" />
        </mxCell>
        <mxCell id="4pbtzh1Q4UVARywyvd64-145" style="edgeStyle=orthogonalEdgeStyle;shape=connector;rounded=0;orthogonalLoop=1;jettySize=auto;html=1;labelBackgroundColor=default;strokeColor=default;strokeWidth=4;align=center;verticalAlign=middle;fontFamily=Helvetica;fontSize=12;fontColor=default;endArrow=classic;" edge="1" parent="1" source="4pbtzh1Q4UVARywyvd64-144">
          <mxGeometry relative="1" as="geometry">
            <mxPoint x="-468" y="-519.333251953125" as="targetPoint" />
          </mxGeometry>
        </mxCell>
        <mxCell id="4pbtzh1Q4UVARywyvd64-144" value="&lt;span style=&quot;font-size: 20px;&quot;&gt;Space between other items so its easier for the user to see&amp;nbsp;&lt;/span&gt;" style="text;html=1;strokeColor=none;fillColor=none;align=center;verticalAlign=middle;whiteSpace=wrap;rounded=0;" vertex="1" parent="1">
          <mxGeometry x="-240" y="-535" width="180" height="30" as="geometry" />
        </mxCell>
        <mxCell id="4pbtzh1Q4UVARywyvd64-147" style="edgeStyle=orthogonalEdgeStyle;shape=connector;rounded=0;orthogonalLoop=1;jettySize=auto;html=1;labelBackgroundColor=default;strokeColor=default;strokeWidth=4;align=center;verticalAlign=middle;fontFamily=Helvetica;fontSize=12;fontColor=default;endArrow=classic;" edge="1" parent="1" source="4pbtzh1Q4UVARywyvd64-146">
          <mxGeometry relative="1" as="geometry">
            <mxPoint x="-1858.333333333333" y="-836.888956705729" as="targetPoint" />
          </mxGeometry>
        </mxCell>
        <mxCell id="4pbtzh1Q4UVARywyvd64-146" value="&lt;span style=&quot;font-size: 20px;&quot;&gt;All product boxes are links to edit the product.&lt;/span&gt;" style="text;html=1;strokeColor=none;fillColor=none;align=center;verticalAlign=middle;whiteSpace=wrap;rounded=0;" vertex="1" parent="1">
          <mxGeometry x="-2240" y="-850" width="180" height="30" as="geometry" />
        </mxCell>
        <mxCell id="4pbtzh1Q4UVARywyvd64-150" style="edgeStyle=orthogonalEdgeStyle;shape=connector;rounded=0;orthogonalLoop=1;jettySize=auto;html=1;labelBackgroundColor=default;strokeColor=default;strokeWidth=4;align=center;verticalAlign=middle;fontFamily=Helvetica;fontSize=12;fontColor=default;endArrow=classic;" edge="1" parent="1" source="4pbtzh1Q4UVARywyvd64-148">
          <mxGeometry relative="1" as="geometry">
            <mxPoint x="-471.66666666666606" y="-775.7778116861978" as="targetPoint" />
          </mxGeometry>
        </mxCell>
        <mxCell id="4pbtzh1Q4UVARywyvd64-148" value="&lt;span style=&quot;font-size: 20px;&quot;&gt;All product boxes are links to edit the product.&lt;/span&gt;" style="text;html=1;strokeColor=none;fillColor=none;align=center;verticalAlign=middle;whiteSpace=wrap;rounded=0;" vertex="1" parent="1">
          <mxGeometry x="-280" y="-790" width="180" height="30" as="geometry" />
        </mxCell>
      </root>
    </mxGraphModel>
  </diagram>
</mxfile>
